<?xml version="1.0" encoding="UTF-8"?>
<svg xmlns="http://www.w3.org/2000/svg" xmlns:xlink="http://www.w3.org/1999/xlink" viewBox="0 0 48 48" width="48px" height="48px">
<defs>
<linearGradient id="linear0" gradientUnits="userSpaceOnUse" x1="48.690331" y1="128.946243" x2="136.306427" y2="41.32658" gradientTransform="matrix(0.27907,0,0,0.27907,0,0)">
<stop offset="0" style="stop-color:rgb(100%,100%,100%);stop-opacity:1;"/>
<stop offset="1" style="stop-color:rgb(92.54902%,94.117647%,94.509804%);stop-opacity:1;"/>
</linearGradient>
</defs>
<g id="surface41665981">
<path style=" stroke:none;fill-rule:nonzero;fill:rgb(100%,100%,100%);fill-opacity:1;" d="M 2.484375 25.167969 L 18.332031 41.015625 C 18.976562 41.660156 20.023438 41.660156 20.667969 41.015625 L 24.015625 37.667969 C 24.660156 37.023438 24.660156 35.976562 24.015625 35.332031 L 8.167969 19.484375 C 7.523438 18.839844 6.476562 18.839844 5.832031 19.484375 L 2.484375 22.832031 C 1.839844 23.476562 1.839844 24.523438 2.484375 25.167969 Z M 2.484375 25.167969 "/>
<path style=" stroke:none;fill-rule:nonzero;fill:url(#linear0);" d="M 44 19 L 17.683594 19 L 24.015625 12.667969 C 24.660156 12.023438 24.660156 10.976562 24.015625 10.332031 L 20.667969 6.984375 C 20.023438 6.339844 18.976562 6.339844 18.332031 6.984375 L 2.484375 22.832031 C 1.839844 23.476562 1.839844 24.523438 2.484375 25.167969 L 5.832031 28.515625 C 6.15625 28.839844 6.578125 29 7 29 L 44 29 C 45.105469 29 46 28.105469 46 27 L 46 21 C 46 19.894531 45.105469 19 44 19 Z M 44 19 "/>
</g>
</svg>
