<?xml version="1.0" encoding="UTF-8"?>
<svg xmlns="http://www.w3.org/2000/svg" xmlns:xlink="http://www.w3.org/1999/xlink" viewBox="0 0 64 64" width="64px" height="64px">
<g id="surface41683590">
<path style=" stroke:none;fill-rule:nonzero;fill:rgb(97.647059%,97.254902%,99.215686%);fill-opacity:1;" d="M 8.640625 64 C 3.867188 64 0 60.132812 0 55.359375 L 0 8.640625 C 0 3.867188 3.867188 0 8.640625 0 L 55.359375 0 C 60.132812 0 64 3.867188 64 8.640625 L 64 55.359375 C 64 60.132812 60.132812 64 55.359375 64 Z M 8.640625 64 "/>
<path style=" stroke:none;fill-rule:nonzero;fill:rgb(73.333335%,47.843137%,32.941177%);fill-opacity:1;" d="M 41.601562 38.5 L 38.398438 38.5 L 38.398438 31.300781 L 41.601562 31.300781 Z M 41.601562 38.5 "/>
<path style=" stroke:none;fill-rule:nonzero;fill:rgb(37.64706%,74.509805%,57.254905%);fill-opacity:1;" d="M 37.601562 20.898438 L 47.199219 20.898438 L 40 11.300781 L 37.367188 14.5 L 36.117188 18.679688 Z M 37.601562 20.898438 "/>
<path style=" stroke:none;fill-rule:nonzero;fill:rgb(37.64706%,74.509805%,57.254905%);fill-opacity:1;" d="M 38.398438 27.300781 L 48 27.300781 L 43.199219 20.898438 L 38.734375 20.898438 L 37.367188 25.097656 Z M 38.398438 27.300781 "/>
<path style=" stroke:none;fill-rule:nonzero;fill:rgb(37.64706%,74.509805%,57.254905%);fill-opacity:1;" d="M 33.597656 32.898438 L 48.800781 32.898438 L 44 27.300781 L 39.601562 27.6875 L 40.136719 29.699219 L 34.417969 29.925781 Z M 33.597656 32.898438 "/>
<path style=" stroke:none;fill-rule:nonzero;fill:rgb(37.64706%,74.509805%,57.254905%);fill-opacity:1;" d="M 44 23.300781 L 39.199219 23.300781 L 39.199219 21.699219 L 44 21.699219 Z M 44 23.300781 "/>
<path style=" stroke:none;fill-rule:nonzero;fill:rgb(37.64706%,74.509805%,57.254905%);fill-opacity:1;" d="M 45.601562 29.699219 L 39.199219 29.699219 L 39.199219 28.101562 L 45.601562 28.101562 Z M 45.601562 29.699219 "/>
<path style=" stroke:none;fill-rule:nonzero;fill:rgb(73.333335%,47.843137%,32.941177%);fill-opacity:1;" d="M 30.398438 29.699219 L 33.601562 29.699219 L 33.601562 36.898438 L 30.398438 36.898438 Z M 30.398438 29.699219 "/>
<path style=" stroke:none;fill-rule:nonzero;fill:rgb(73.333335%,47.843137%,32.941177%);fill-opacity:1;" d="M 22.398438 31.300781 L 25.601562 31.300781 L 25.601562 38.5 L 22.398438 38.5 Z M 22.398438 31.300781 "/>
<path style=" stroke:none;fill-rule:nonzero;fill:rgb(37.64706%,74.509805%,57.254905%);fill-opacity:1;" d="M 26.398438 20.898438 L 16.800781 20.898438 L 24 11.300781 L 26.632812 14.5 L 27.882812 18.679688 Z M 26.398438 20.898438 "/>
<path style=" stroke:none;fill-rule:nonzero;fill:rgb(37.64706%,74.509805%,57.254905%);fill-opacity:1;" d="M 25.601562 27.300781 L 16 27.300781 L 20.800781 20.898438 L 25.265625 20.898438 L 26.632812 25.097656 Z M 25.601562 27.300781 "/>
<path style=" stroke:none;fill-rule:nonzero;fill:rgb(37.64706%,74.509805%,57.254905%);fill-opacity:1;" d="M 30.402344 32.898438 L 15.199219 32.898438 L 20 27.300781 L 24.398438 27.6875 L 23.863281 29.699219 L 29.582031 29.925781 Z M 30.402344 32.898438 "/>
<path style=" stroke:none;fill-rule:nonzero;fill:rgb(37.64706%,74.509805%,57.254905%);fill-opacity:1;" d="M 39.199219 17.699219 L 24.800781 17.699219 L 32 7.300781 Z M 39.199219 17.699219 "/>
<path style=" stroke:none;fill-rule:nonzero;fill:rgb(37.64706%,74.509805%,57.254905%);fill-opacity:1;" d="M 35.199219 17.699219 L 40 24.101562 L 24 24.101562 L 28.800781 17.699219 "/>
<path style=" stroke:none;fill-rule:nonzero;fill:rgb(37.64706%,74.509805%,57.254905%);fill-opacity:1;" d="M 36 24.101562 L 40.800781 29.699219 L 23.199219 29.699219 L 28 24.101562 "/>
<path style=" stroke:none;fill-rule:nonzero;fill:rgb(37.64706%,74.509805%,57.254905%);fill-opacity:1;" d="M 8.800781 36.898438 L 55.199219 36.898438 L 55.199219 39.300781 L 8.800781 39.300781 Z M 8.800781 36.898438 "/>
<path style=" stroke:none;fill-rule:nonzero;fill:rgb(73.333335%,47.843137%,32.941177%);fill-opacity:1;" d="M 21.601562 51.300781 L 25.601562 50.5 L 27.199219 53.699219 L 32 56.898438 L 40 52.101562 L 41.601562 48.898438 L 45.601562 48.898438 L 55.199219 40.101562 L 54.398438 39.300781 L 8.800781 39.300781 L 8.800781 40.101562 Z M 21.601562 51.300781 "/>
<path style=" stroke:none;fill-rule:nonzero;fill:rgb(27.843139%,16.862746%,16.078432%);fill-opacity:1;" d="M 32 57.699219 C 31.84375 57.699219 31.6875 57.65625 31.554688 57.5625 L 26.753906 54.34375 C 26.640625 54.265625 26.546875 54.160156 26.484375 54.035156 L 25.160156 51.386719 L 21.761719 52.085938 C 21.515625 52.132812 21.261719 52.066406 21.074219 51.902344 L 8.273438 40.703125 C 7.941406 40.410156 7.90625 39.90625 8.199219 39.574219 C 8.488281 39.242188 8.996094 39.207031 9.328125 39.496094 L 21.828125 50.4375 L 25.4375 49.695312 C 25.792969 49.621094 26.152344 49.796875 26.316406 50.121094 L 27.820312 53.132812 L 32.023438 55.953125 L 39.390625 51.535156 L 40.886719 48.542969 C 41.019531 48.269531 41.296875 48.101562 41.601562 48.101562 L 45.289062 48.101562 L 54.660156 39.511719 C 54.984375 39.210938 55.492188 39.234375 55.789062 39.558594 C 56.089844 39.886719 56.066406 40.390625 55.738281 40.691406 L 46.140625 49.492188 C 45.992188 49.625 45.800781 49.699219 45.601562 49.699219 L 42.09375 49.699219 L 40.714844 52.457031 C 40.648438 52.59375 40.542969 52.707031 40.410156 52.785156 L 32.410156 57.585938 C 32.285156 57.664062 32.140625 57.699219 32 57.699219 Z M 32 57.699219 "/>
<path style=" stroke:none;fill-rule:nonzero;fill:rgb(27.843139%,16.862746%,16.078432%);fill-opacity:1;" d="M 44 42.5 C 43.558594 42.5 43.199219 42.859375 43.199219 43.300781 L 43.199219 44.898438 C 43.199219 45.339844 43.558594 45.699219 44 45.699219 C 44.441406 45.699219 44.800781 45.339844 44.800781 44.898438 L 44.800781 43.300781 C 44.800781 42.859375 44.441406 42.5 44 42.5 Z M 44 42.5 "/>
<path style=" stroke:none;fill-rule:nonzero;fill:rgb(27.843139%,16.862746%,16.078432%);fill-opacity:1;" d="M 48 42.5 C 47.558594 42.5 47.199219 42.859375 47.199219 43.300781 L 47.199219 44.898438 C 47.199219 45.339844 47.558594 45.699219 48 45.699219 C 48.441406 45.699219 48.800781 45.339844 48.800781 44.898438 L 48.800781 43.300781 C 48.800781 42.859375 48.441406 42.5 48 42.5 Z M 48 42.5 "/>
<path style=" stroke:none;fill-rule:nonzero;fill:rgb(27.843139%,16.862746%,16.078432%);fill-opacity:1;" d="M 40 42.5 C 39.558594 42.5 39.199219 42.859375 39.199219 43.300781 L 39.199219 44.898438 C 39.199219 45.339844 39.558594 45.699219 40 45.699219 C 40.441406 45.699219 40.800781 45.339844 40.800781 44.898438 L 40.800781 43.300781 C 40.800781 42.859375 40.441406 42.5 40 42.5 Z M 40 42.5 "/>
<path style=" stroke:none;fill-rule:nonzero;fill:rgb(27.843139%,16.862746%,16.078432%);fill-opacity:1;" d="M 36 42.5 C 35.558594 42.5 35.199219 42.859375 35.199219 43.300781 L 35.199219 44.898438 C 35.199219 45.339844 35.558594 45.699219 36 45.699219 C 36.441406 45.699219 36.800781 45.339844 36.800781 44.898438 L 36.800781 43.300781 C 36.800781 42.859375 36.441406 42.5 36 42.5 Z M 36 42.5 "/>
<path style=" stroke:none;fill-rule:nonzero;fill:rgb(27.843139%,16.862746%,16.078432%);fill-opacity:1;" d="M 32 42.5 C 31.558594 42.5 31.199219 42.859375 31.199219 43.300781 L 31.199219 44.898438 C 31.199219 45.339844 31.558594 45.699219 32 45.699219 C 32.441406 45.699219 32.800781 45.339844 32.800781 44.898438 L 32.800781 43.300781 C 32.800781 42.859375 32.441406 42.5 32 42.5 Z M 32 42.5 "/>
<path style=" stroke:none;fill-rule:nonzero;fill:rgb(27.843139%,16.862746%,16.078432%);fill-opacity:1;" d="M 28 42.5 C 27.558594 42.5 27.199219 42.859375 27.199219 43.300781 L 27.199219 44.898438 C 27.199219 45.339844 27.558594 45.699219 28 45.699219 C 28.441406 45.699219 28.800781 45.339844 28.800781 44.898438 L 28.800781 43.300781 C 28.800781 42.859375 28.441406 42.5 28 42.5 Z M 28 42.5 "/>
<path style=" stroke:none;fill-rule:nonzero;fill:rgb(37.64706%,74.509805%,57.254905%);fill-opacity:1;" d="M 27.199219 18.5 L 36.800781 18.5 L 36.800781 20.101562 L 27.199219 20.101562 Z M 27.199219 18.5 "/>
<path style=" stroke:none;fill-rule:nonzero;fill:rgb(37.64706%,74.509805%,57.254905%);fill-opacity:1;" d="M 26.398438 24.898438 L 37.601562 24.898438 L 37.601562 26.5 L 26.398438 26.5 Z M 26.398438 24.898438 "/>
<path style=" stroke:none;fill-rule:nonzero;fill:rgb(27.843139%,16.862746%,16.078432%);fill-opacity:1;" d="M 24 42.5 C 23.558594 42.5 23.199219 42.859375 23.199219 43.300781 L 23.199219 44.898438 C 23.199219 45.339844 23.558594 45.699219 24 45.699219 C 24.441406 45.699219 24.800781 45.339844 24.800781 44.898438 L 24.800781 43.300781 C 24.800781 42.859375 24.441406 42.5 24 42.5 Z M 24 42.5 "/>
<path style=" stroke:none;fill-rule:nonzero;fill:rgb(37.64706%,74.509805%,57.254905%);fill-opacity:1;" d="M 20 21.699219 L 24.800781 21.699219 L 24.800781 23.300781 L 20 23.300781 Z M 20 21.699219 "/>
<path style=" stroke:none;fill-rule:nonzero;fill:rgb(37.64706%,74.509805%,57.254905%);fill-opacity:1;" d="M 18.398438 28.101562 L 24.800781 28.101562 L 24.800781 29.699219 L 18.398438 29.699219 Z M 18.398438 28.101562 "/>
<path style=" stroke:none;fill-rule:nonzero;fill:rgb(27.843139%,16.862746%,16.078432%);fill-opacity:1;" d="M 20 42.5 C 19.558594 42.5 19.199219 42.859375 19.199219 43.300781 L 19.199219 44.898438 C 19.199219 45.339844 19.558594 45.699219 20 45.699219 C 20.441406 45.699219 20.800781 45.339844 20.800781 44.898438 L 20.800781 43.300781 C 20.800781 42.859375 20.441406 42.5 20 42.5 Z M 20 42.5 "/>
<path style=" stroke:none;fill-rule:nonzero;fill:rgb(27.843139%,16.862746%,16.078432%);fill-opacity:1;" d="M 16 42.5 C 15.558594 42.5 15.199219 42.859375 15.199219 43.300781 L 15.199219 44.898438 C 15.199219 45.339844 15.558594 45.699219 16 45.699219 C 16.441406 45.699219 16.800781 45.339844 16.800781 44.898438 L 16.800781 43.300781 C 16.800781 42.859375 16.441406 42.5 16 42.5 Z M 16 42.5 "/>
<path style=" stroke:none;fill-rule:nonzero;fill:rgb(27.843139%,16.862746%,16.078432%);fill-opacity:1;" d="M 44.800781 39.300781 L 43.199219 39.300781 C 42.757812 39.300781 42.398438 39.660156 42.398438 40.101562 C 42.398438 40.542969 42.757812 40.898438 43.199219 40.898438 L 44.800781 40.898438 C 45.242188 40.898438 45.601562 40.542969 45.601562 40.101562 C 45.601562 39.660156 45.242188 39.300781 44.800781 39.300781 Z M 44.800781 39.300781 "/>
<path style=" stroke:none;fill-rule:nonzero;fill:rgb(27.843139%,16.862746%,16.078432%);fill-opacity:1;" d="M 54.398438 39.300781 L 48 39.300781 C 47.558594 39.300781 47.199219 39.660156 47.199219 40.101562 C 47.199219 40.542969 47.558594 40.898438 48 40.898438 L 55.136719 40.898438 C 55.613281 40.898438 56 40.542969 56 40.101562 L 56 39.300781 Z M 54.398438 39.300781 "/>
<path style=" stroke:none;fill-rule:nonzero;fill:rgb(27.843139%,16.862746%,16.078432%);fill-opacity:1;" d="M 40 39.300781 L 8 39.300781 L 8 40.101562 C 8 40.542969 8.386719 40.898438 8.863281 40.898438 L 40 40.898438 C 40.441406 40.898438 40.800781 40.542969 40.800781 40.101562 C 40.800781 39.660156 40.441406 39.300781 40 39.300781 Z M 40 39.300781 "/>
<path style=" stroke:none;fill-rule:nonzero;fill:rgb(27.843139%,16.862746%,16.078432%);fill-opacity:1;" d="M 56 40.101562 L 54.398438 40.101562 L 54.398438 37.699219 L 9.601562 37.699219 L 9.601562 40.101562 L 8 40.101562 L 8 36.898438 C 8 36.457031 8.359375 36.101562 8.800781 36.101562 L 55.199219 36.101562 C 55.640625 36.101562 56 36.457031 56 36.898438 Z M 56 40.101562 "/>
<path style="fill:none;stroke-width:7.0625;stroke-linecap:butt;stroke-linejoin:round;stroke:rgb(27.843139%,16.862746%,16.078432%);stroke-opacity:1;stroke-miterlimit:10;" d="M 138.422241 62.500366 L 87.577759 62.500366 L 113 25.780884 Z M 138.422241 62.500366 " transform="matrix(0.283186,0,0,0.283186,0,0)"/>
<path style="fill:none;stroke-width:7.0625;stroke-linecap:butt;stroke-linejoin:round;stroke:rgb(27.843139%,16.862746%,16.078432%);stroke-opacity:1;stroke-miterlimit:10;" d="M 124.297241 62.500366 L 141.25 85.108643 L 84.75 85.108643 L 101.702759 62.500366 " transform="matrix(0.283186,0,0,0.283186,0,0)"/>
<path style="fill:none;stroke-width:7.0625;stroke-linecap:butt;stroke-linejoin:round;stroke:rgb(27.843139%,16.862746%,16.078432%);stroke-opacity:1;stroke-miterlimit:10;" d="M 127.125 85.108643 L 144.077759 104.875366 L 81.922241 104.875366 L 98.875 85.108643 " transform="matrix(0.283186,0,0,0.283186,0,0)"/>
<path style="fill:none;stroke-width:7.0625;stroke-linecap:butt;stroke-linejoin:round;stroke:rgb(27.843139%,16.862746%,16.078432%);stroke-opacity:1;stroke-miterlimit:10;" d="M 93.219482 73.797607 L 59.327759 73.797607 L 84.75 39.905884 L 94.047119 51.203125 " transform="matrix(0.283186,0,0,0.283186,0,0)"/>
<path style="fill:none;stroke-width:7.0625;stroke-linecap:butt;stroke-linejoin:round;stroke:rgb(27.843139%,16.862746%,16.078432%);stroke-opacity:1;stroke-miterlimit:10;" d="M 90.405518 96.405884 L 56.5 96.405884 L 73.452759 73.797607 " transform="matrix(0.283186,0,0,0.283186,0,0)"/>
<path style="fill:none;stroke-width:7.0625;stroke-linecap:butt;stroke-linejoin:round;stroke:rgb(27.843139%,16.862746%,16.078432%);stroke-opacity:1;stroke-miterlimit:10;" d="M 107.358276 116.172607 L 53.672241 116.172607 L 70.625 96.405884 " transform="matrix(0.283186,0,0,0.283186,0,0)"/>
<path style="fill:none;stroke-width:7.0625;stroke-linecap:butt;stroke-linejoin:round;stroke:rgb(27.843139%,16.862746%,16.078432%);stroke-opacity:1;stroke-miterlimit:10;" d="M 107.344482 130.297607 L 107.344482 104.875366 L 118.655518 104.875366 L 118.655518 130.297607 Z M 107.344482 130.297607 " transform="matrix(0.283186,0,0,0.283186,0,0)"/>
<path style="fill:none;stroke-width:7.0625;stroke-linecap:butt;stroke-linejoin:miter;stroke:rgb(27.843139%,16.862746%,16.078432%);stroke-opacity:1;stroke-miterlimit:10;" d="M 79.094482 130.297607 L 79.094482 116.172607 L 90.405518 116.172607 L 90.405518 130.297607 Z M 79.094482 130.297607 " transform="matrix(0.283186,0,0,0.283186,0,0)"/>
<path style="fill:none;stroke-width:7.0625;stroke-linecap:butt;stroke-linejoin:round;stroke:rgb(27.843139%,16.862746%,16.078432%);stroke-opacity:1;stroke-miterlimit:10;" d="M 132.780518 73.797607 L 166.672241 73.797607 L 141.25 39.905884 L 131.952881 51.203125 " transform="matrix(0.283186,0,0,0.283186,0,0)"/>
<path style="fill:none;stroke-width:7.0625;stroke-linecap:butt;stroke-linejoin:round;stroke:rgb(27.843139%,16.862746%,16.078432%);stroke-opacity:1;stroke-miterlimit:10;" d="M 135.594482 96.405884 L 169.5 96.405884 L 152.547241 73.797607 " transform="matrix(0.283186,0,0,0.283186,0,0)"/>
<path style="fill:none;stroke-width:7.0625;stroke-linecap:butt;stroke-linejoin:round;stroke:rgb(27.843139%,16.862746%,16.078432%);stroke-opacity:1;stroke-miterlimit:10;" d="M 118.641724 116.172607 L 172.327759 116.172607 L 155.375 96.405884 " transform="matrix(0.283186,0,0,0.283186,0,0)"/>
<path style="fill:none;stroke-width:7.0625;stroke-linecap:butt;stroke-linejoin:miter;stroke:rgb(27.843139%,16.862746%,16.078432%);stroke-opacity:1;stroke-miterlimit:10;" d="M 135.594482 130.297607 L 135.594482 116.172607 L 146.905518 116.172607 L 146.905518 130.297607 Z M 135.594482 130.297607 " transform="matrix(0.283186,0,0,0.283186,0,0)"/>
</g>
</svg>
