<svg xmlns="http://www.w3.org/2000/svg"  viewBox="0 0 48 48" width="48px" height="48px"><path fill="#ffcc80" d="M16 24c0 1.8-1.8 4-4 4s-4-1.8-4-4c0-2.2-1-5-1-5C13.3 19 16 21.8 16 24M32 24c0-2.2 2.8-5 9-5 0 0-1 2.8-1 5 0 2.2-1.8 4-4 4S32 25.8 32 24"/><path fill="#388e3c" d="M5,14c0,0,1,7,19,7s19-7,19-7H5z"/><path fill="#4caf50" d="M37,20H11C11,10,8,2,8,2s6.7,0,16,0s16,0,16,0S37,10,37,20z"/><path fill="#795548" d="M10.6,14c0.2,1.8,0.4,3.8,0.4,6h26c0-2.2,0.1-4.2,0.4-6H10.6z"/><path fill="#ff6d00" d="M37,20H24H11c0,3.4-2,8.4-2,11.9C9,40.6,15.2,46,24,46s15-5.3,15-14C39,28.5,37,23.4,37,20z"/><path fill="#ffe0b2" d="M13,20v9c0,4.5,1.5,8.2,5.2,9.8c1.3,0.6,2.8-0.4,2.8-1.8v-1c0,0,1.4-1,3-1s3,1,3,1v1 c0,1.4,1.5,2.4,2.8,1.8c3.7-1.6,5.2-5.3,5.2-9.8v-9H13z"/><path fill="#ffe0b2" d="M13,20v9c0,4.5,1.5,8.2,5.2,9.8c1.3,0.6,2.8-0.4,2.8-1.8v-1c0,0,1.4-1,3-1s3,1,3,1v1 c0,1.4,1.5,2.4,2.8,1.8c3.7-1.6,5.2-5.3,5.2-9.8v-9H13z"/><path fill="#784719" d="M31 25.5c0 .8-.7 1.5-1.5 1.5S28 26.3 28 25.5s.7-1.5 1.5-1.5S31 24.7 31 25.5M20 25.5c0-.8-.7-1.5-1.5-1.5-.8 0-1.5.7-1.5 1.5s.7 1.5 1.5 1.5C19.3 27 20 26.3 20 25.5"/><path fill="#ffab91" d="M19,34h10c0,0-2,3-5,3S19,34,19,34z"/><path fill="#ffee58" d="M26,16v2h-4v-2H26 M27,14h-6c-0.5,0-1,0.4-1,1v4c0,0.5,0.5,1,1,1h6c0.5,0,1-0.5,1-1v-4 C28,14.4,27.5,14,27,14L27,14z"/><path fill="#4caf50" d="M24,22C7.1,22,4.2,15.7,4.1,15.4c-0.2-0.5,0-1.1,0.5-1.3c0.5-0.2,1.1,0,1.3,0.5c0,0,2.7,5.4,18.1,5.4 s18.1-5.4,18.1-5.4c0.2-0.5,0.8-0.7,1.3-0.5c0.5,0.2,0.7,0.8,0.5,1.3C43.8,15.7,40.9,22,24,22z"/></svg>