<svg xmlns="http://www.w3.org/2000/svg"  viewBox="0 0 48 48" width="48px" height="48px"><path fill="#FFC107" d="M42.292,18.436c-7.193,7.194-15.074,10.157-18.979,6.252c-3.906-3.905-0.942-11.786,6.252-18.979L42.292,18.436z"/><path fill="#FFC107" d="M14.664 15.335H24.665V41.335H14.664z" transform="rotate(45.004 19.663 28.333)"/><path fill="#546E7A" d="M12.763 43.691c-.391.391-1.023.391-1.414 0L4.277 36.62c-.391-.391-.391-1.023 0-1.414l2.928-2.929c.392-.391 1.023-.391 1.414 0l7.071 7.072c.392.391.392 1.022 0 1.414L12.763 43.691zM40.436 21.707c-.391.391-1.023.391-1.414 0L26.293 8.979c-.391-.391-.391-1.023 0-1.414l3.271-3.271c.391-.392 1.023-.392 1.414 0l12.728 12.728c.392.391.392 1.023 0 1.414L40.436 21.707z"/><path fill="#37474F" d="M8.986 34.901H10.986V41.05500000000001H8.986z" transform="rotate(45.001 9.987 37.979)"/><path fill="#37474F" d="M11.815 37.73H13.815V43.882999999999996H11.815z" transform="rotate(45.001 12.815 40.807)"/><path fill="#37474F" d="M6.158 32.073H8.158000000000001V38.226H6.158z" transform="rotate(45.001 7.158 35.15)"/><path fill="#37474F" d="M34 9.687H36V16.313H34z" transform="rotate(45.001 35 13)"/><path fill="#37474F" d="M36.829 12.515H38.829V19.141000000000002H36.829z" transform="rotate(45.001 37.829 15.828)"/><path fill="#37474F" d="M39.656 15.344H41.656V21.97H39.656z" transform="rotate(45.02 40.654 18.655)"/><path fill="#37474F" d="M28.343 4.03H30.343V10.656H28.343z" transform="rotate(44.98 29.342 7.343)"/><path fill="#37474F" d="M31.171 6.859H33.171V13.484H31.171z" transform="rotate(45.001 32.172 10.171)"/><path fill="#C98C06" d="M28.132,19.868c-1.156-1.157-3.039-1.157-4.195,0l-5.068,5.069c-1.157,1.156-1.157,3.038,0,4.194c1.156,1.157,3.038,1.157,4.194,0l5.069-5.069C29.289,22.906,29.289,21.025,28.132,19.868L28.132,19.868z"/><path fill="#263238" d="M25.347,25.426c-0.767,0.766-2.007,0.766-2.772,0l0,0c-0.766-0.766-0.766-2.006,0-2.772l2.079-2.081c0.767-0.764,2.009-0.764,2.774,0l0,0c0.764,0.766,0.764,2.008,0,2.774L25.347,25.426z"/></svg>