<?xml version="1.0" encoding="utf-8"?>
<svg viewBox="70.594 -11.587 290.794 652.692" xmlns="http://www.w3.org/2000/svg">
  <g id="layer1" transform="matrix(1, 0, 0, 1, -149.959976, -61.188549)" style="display:inline">
    <path style="fill-opacity: 1; stroke: none; fill: rgb(255, 255, 255);" d="M 367.469 49.617 C 326.389 49.252 298.901 55.107 254.406 97.335 C 209.911 139.563 217.478 188.613 231.156 229.804 C 248.414 281.775 292.228 348.374 348.094 375.867 C 337.607 400.988 327.83 456.875 333.313 538.179 C 342.011 667.182 356.191 698.973 363.188 698.585 C 365.077 698.481 367.289 685.822 367.469 678.273 C 367.444 689.076 367.137 700.638 371.219 702.21 C 376.147 704.108 387.933 674.469 401.5 539.179 C 406.65 487.829 398.692 409.979 388.188 375.21 C 443.413 347.319 486.662 281.358 503.781 229.804 C 517.459 188.613 511.857 133.002 480.531 97.335 C 452.388 65.293 408.549 49.982 367.469 49.617 Z M 291.938 120.523 L 367.469 196.054 L 441.25 122.273 C 453.052 132.394 461.795 146.083 466.813 163.742 C 479.539 208.528 465.949 237.398 445.875 269.742 C 417.093 316.117 390.274 343.203 367.563 360.054 C 344.851 343.203 317.938 316.117 289.156 269.742 C 269.082 237.398 253.869 203.681 265.219 163.742 C 270.714 144.405 279.865 130.413 291.938 120.523 Z" id="rect3705"/>
    <path style="fill-opacity: 1; stroke: none; fill: rgb(255, 6, 26);" d="M 450.851 72.399 L 436.07 118.149 C 430.96 114.465 425.363 111.362 419.32 108.805 L 367.476 160.649 L 314.507 107.68 C 306.974 110.539 300.065 114.241 293.882 118.962 L 279.632 74.962 C 272.332 79.943 265.436 85.738 259.007 92.368 L 274.695 140.899 C 279.463 132.688 285.254 125.969 291.945 120.493 L 367.476 196.024 L 441.257 122.243 C 446.747 126.951 451.566 132.417 455.663 138.712 L 471.945 88.43 C 465.457 82.37 458.371 77.029 450.851 72.399 Z M 501.32 132.212 L 465.007 158.024 C 465.652 159.88 466.265 161.76 466.82 163.712 C 468.894 171.013 470.277 177.891 471.038 184.43 L 508.445 157.837 C 506.881 149.089 504.505 140.482 501.32 132.212 Z M 227.967 134.102 C 225.042 142.512 222.884 148.756 221.498 157.672 L 261.476 186.462 C 261.826 179.092 263.007 171.521 265.226 163.712 C 265.643 162.244 266.111 160.806 266.57 159.399 L 227.967 134.102 Z M 510.132 199.055 L 471.663 201.837 C 471.208 210.797 469.537 219.171 466.976 227.243 L 505.413 224.462 C 507.709 216.385 509.304 207.837 510.132 199.055 Z M 222.94 198.954 C 223.707 207.771 227.381 216.834 229.663 224.868 L 268.007 227.618 C 265.09 219.331 262.989 210.871 262.007 202.118 L 222.94 198.954 Z M 495.445 251.368 L 455.507 253.305 C 452.551 258.733 449.317 264.178 445.882 269.712 C 443.886 272.928 441.89 276.021 439.913 279.055 L 482.632 277.024 C 487.45 268.426 491.737 259.81 495.445 251.368 Z M 239.663 251.649 C 243.38 260.086 247.684 268.687 252.507 277.274 L 295.288 279.337 C 293.252 276.218 291.219 273.024 289.163 269.712 C 285.85 264.373 282.708 258.99 279.757 253.555 L 239.663 251.649 Z M 266.82 300.368 C 272.702 308.976 279.078 317.386 285.913 325.368 L 330.163 325.368 C 323.587 318.001 316.83 309.719 309.913 300.368 L 266.82 300.368 Z M 425.163 300.368 C 418.256 309.719 411.51 318.001 404.945 325.368 L 449.038 325.368 C 455.873 317.386 462.25 308.975 468.132 300.368 L 425.163 300.368 Z M 350.913 346.337 L 309.413 349.337 C 319.369 358.149 329.951 365.888 341.07 372.118 L 342.445 392.993 L 367.476 417.962 L 392.601 392.899 L 393.32 372.462 C 404.502 366.261 415.15 358.53 425.163 349.712 L 383.82 346.712 C 378.389 351.566 372.822 356.164 367.57 360.024 C 362.24 356.07 356.675 351.535 350.913 346.337 Z M 336.351 423.524 C 334.942 433.158 333.775 443.817 332.976 455.524 L 367.476 490.024 L 401.163 456.337 C 400.289 445.33 399.132 434.525 397.788 424.337 L 367.476 454.649 L 336.351 423.524 Z M 331.757 490.93 C 331.721 502.346 332.027 514.461 332.695 527.243 L 367.507 562.024 L 402.445 527.055 C 403.107 515.781 403.257 503.612 402.976 491.149 L 367.507 526.618 L 331.757 490.93 Z M 335.476 566.649 C 336.679 581.139 337.935 594.15 339.257 605.805 L 367.507 634.024 L 393.663 607.837 C 395.236 595.883 396.858 582.521 398.507 567.618 L 367.507 598.649 L 335.476 566.649 Z M 344.82 645.993 C 351.693 686.491 358.835 698.797 363.195 698.555 C 365.084 698.451 367.296 685.792 367.476 678.243 C 367.451 689.046 367.144 700.608 371.226 702.18 C 374.359 703.387 380.259 691.825 387.632 648.493 L 367.507 668.649 L 344.82 645.993 Z" id="path2874"/>
    <path style="fill: rgb(216, 216, 216); stroke: rgb(0, 0, 0);"/>
    <path style="fill: rgb(216, 216, 216); stroke: rgb(0, 0, 0);"/>
    <path d="M 251.503 115.676 C 251.364 115.431 255.886 115.078 256.184 115.055 L 256.881 160.339 L 251.511 161.733 L 251.503 115.676 Z" style="fill: rgb(255, 6, 26);" transform="matrix(0.594791, -0.80388, 0.80388, 0.594791, -11.779519, 261.818237)"/>
    <path d="M 256.8 115.216 L 256.8 166.751 L 251.033 166.751 L 251.033 115.216 L 256.8 115.216 Z M 252.033 165.751 L 255.8 165.751 L 255.8 116.216 L 252.033 116.216 L 252.033 165.751 Z" style="fill: none;" transform="matrix(0.594791, -0.80388, 0.80388, 0.594791, -11.779519, 261.818237)"/>
    <path d="M 251.5 119.502 L 256.798 118.184 L 256.292 158.308 L 251.102 158.978 C 250.934 141.472 251.5 119.502 251.5 119.502 Z" style="fill: rgb(255, 6, 26);" transform="matrix(0.080806, -0.99673, 0.99673, 0.080806, 83.055969, 437.312775)"/>
    <path d="M 251.607 121.418 L 256.271 118.887 L 255.845 158.979 L 251.504 161.656 L 251.607 121.418 Z" style="fill: rgb(255, 6, 26);" transform="matrix(0.040701, -0.999171, 0.999171, 0.040701, 107.210045, 495.277222)"/>
    <path d="M 256.77 118.047 L 256.8 166.751 L 251.032 166.751 L 251.107 121.12 L 256.77 118.047 Z M 252.034 165.751 L 255.8 165.751 L 255.772 119.727 L 252.107 121.716 L 252.034 165.751 Z" style="fill: none;" transform="matrix(0.040701, -0.999171, 0.999171, 0.040701, 107.210045, 495.277222)"/>
    <path d="M 251.716 120.149 L 256.465 116.824 L 255.796 161.028 L 251.361 163.877 L 251.716 120.149 Z" style="fill: rgb(255, 6, 26);" transform="matrix(0.005559, -0.999985, 0.999985, 0.005559, 142.904587, 548.174683)"/>
    <path d="M 256.8 115.216 L 256.8 166.751 L 251.033 166.751 L 251.033 115.216 L 256.8 115.216 Z M 252.033 165.751 L 255.8 165.751 L 255.8 116.216 L 252.033 116.216 L 252.033 165.751 Z" style="fill: none;" transform="matrix(0.005559, -0.999985, 0.999985, 0.005559, 142.904587, 548.174683)"/>
    <path d="M 256.8 115.216 L 256.8 166.751 L 251.033 166.751 L 251.033 115.216 L 256.8 115.216 Z M 252.033 165.751 L 255.8 165.751 L 255.8 116.216 L 252.033 116.216 L 252.033 165.751 Z" style="fill: none;" transform="matrix(0.005559, -0.999985, 0.999985, 0.005559, 142.904587, 548.174683)"/>
    <path d="M 256.8 115.216 L 256.8 166.751 L 251.033 166.751 L 251.033 115.216 L 256.8 115.216 Z M 252.033 165.751 L 255.8 165.751 L 255.8 116.216 L 252.033 116.216 L 252.033 165.751 Z" style="fill: none;" transform="matrix(0.005559, -0.999985, 0.999985, 0.005559, 142.904587, 548.174683)"/>
    <path d="M 256.8 115.216 L 256.8 166.751 L 251.033 166.751 L 251.033 115.216 L 256.8 115.216 Z M 252.033 165.751 L 255.8 165.751 L 255.8 116.216 L 252.033 116.216 L 252.033 165.751 Z" style="fill: none;" transform="matrix(0.005559, -0.999985, 0.999985, 0.005559, 142.904587, 548.174683)"/>
    <path d="M 251.544 121.279 L 256.352 116.992 L 255.737 159.689 L 252.271 163.135 L 251.544 121.279 Z" style="fill: rgb(255, 6, 26);" transform="matrix(-0.08343, -0.996514, 0.996514, -0.08343, 206.867508, 607.849854)"/>
    <path d="M 251.891 118.548 L 256.156 122.711 L 257.134 166.828 L 252.362 162.224 L 251.891 118.548 Z" style="fill: rgb(255, 6, 26);" transform="matrix(0.070018, -0.997546, 0.997546, 0.070018, 249.514038, 586.874512)"/>
    <path d="M 255.467 121.472 L 256.815 166.751 L 251.029 166.751 L 251.4 117.335 Z M 252.037 165.751 L 255.785 165.751 L 254.479 121.894 L 252.382 119.761 Z" style="fill: none;" transform="matrix(0.070018, -0.997546, 0.997546, 0.070018, 249.514038, 586.874512)"/>
    <path d="M 251.855 119.041 L 255.993 122.526 L 256.3 166.251 L 252.162 162.925 L 251.855 119.041 Z" style="fill: rgb(255, 6, 26);" transform="matrix(0.001389, -0.999999, 0.999999, 0.001389, 306.955383, 549.641479)"/>
    <path d="M 251.858 120.655 L 255.508 123.282 L 256.311 163.554 L 252.009 161.204 L 251.858 120.655 Z" style="fill: rgb(255, 6, 26);" transform="matrix(-0.062649, -0.998036, 0.998036, -0.062649, 351.733734, 509.99118)"/>
    <path d="M 252.372 122.778 L 257.139 122.778 L 258.064 162.267 L 252.574 161.412 L 252.372 122.778 Z" style="fill: rgb(255, 6, 26);" transform="matrix(-0.08343, -0.996514, 0.996514, -0.08343, 370.702911, 460.946808)"/>
    <path d="M 251.911 119.511 L 256.855 120.617 L 256.915 165.132 L 252.007 164.248 L 251.911 119.511 Z" style="fill: rgb(255, 6, 26);" transform="matrix(-0.586962, -0.809615, 0.809615, -0.586962, 515.380066, 429.896881)"/>
    <path d="M 251.772 119.609 C 251.772 119.539 256.101 118.204 256.101 118.274 L 256.3 166.251 L 251.533 166.251 L 251.772 119.609 Z" style="fill: rgb(255, 6, 26);" transform="matrix(0.950597, -0.310428, 0.310428, 0.950597, 5.958042, 38.272442)"/>
    <path d="M 256.8 115.216 L 256.8 166.751 L 251.033 166.751 L 251.033 115.216 L 256.8 115.216 Z M 252.033 165.751 L 255.8 165.751 L 255.8 116.216 L 252.033 116.216 L 252.033 165.751 Z" style="fill: none;" transform="matrix(0.950597, -0.310428, 0.310428, 0.950597, 5.958042, 38.272442)"/>
    <path d="M 256.8 115.216 L 256.8 166.751 L 251.033 166.751 L 251.033 115.216 L 256.8 115.216 Z M 252.033 165.751 L 255.8 165.751 L 255.8 116.216 L 252.033 116.216 L 252.033 165.751 Z" style="fill: none;" transform="matrix(0.950597, -0.310428, 0.310428, 0.950597, 5.958042, 38.272442)"/>
    <path d="M 256.8 115.216 L 256.8 166.751 L 251.033 166.751 L 251.033 115.216 L 256.8 115.216 Z M 252.033 165.751 L 255.8 165.751 L 255.8 116.216 L 252.033 116.216 L 252.033 165.751 Z" style="fill: none;" transform="matrix(0.950597, -0.310428, 0.310428, 0.950597, 5.958042, 38.272442)"/>
    <rect x="251.533" y="115.716" width="4.767" height="50.535" style="fill: rgb(255, 6, 26);" transform="matrix(0.960594, 0.277957, -0.277957, 0.960594, 233.234909, -113.234825)"/>
    <path d="M 251.533 162.765 L 256.3 162.765 L 255.746 227.904 L 250.976 230.591 L 251.533 162.765 Z" style="fill: rgb(255, 6, 26);" transform="matrix(-0.71922, -0.694783, 0.706504, -0.707896, 434.336731, 444.883453)"/>
    <path d="M 251.424 163.157 L 256.422 165.396 L 256.3 232.962 L 251.533 232.962 L 251.424 163.157 Z" style="fill: rgb(255, 6, 26);" transform="matrix(0.709331, -0.704875, 0.704875, 0.709331, 25.283136, 167.356445)"/>
    <path d="M 251.61 186.911 L 256.478 187.216 L 255.439 232.041 L 250.978 228.773 L 251.61 186.911 Z" style="fill: rgb(255, 6, 26);" transform="matrix(-0.71922, -0.694783, 0.706504, -0.707896, 415.684988, 751.187503)"/>
    <path d="M 251.711 187.418 L 256.074 187.209 L 255.834 241.544 L 250.97 236.854 L 251.711 187.418 Z" style="fill: rgb(255, 6, 26);" transform="matrix(-0.71922, -0.694783, 0.706504, -0.707896, 416.106258, 825.799167)"/>
    <path d="M 249.388 185.054 L 253.853 185.15 L 254.322 237.78 L 249.863 232.087 L 249.388 185.054 Z" style="fill: rgb(255, 6, 26);" transform="matrix(-0.71922, -0.694783, 0.706504, -0.707896, 415.684988, 896.057694)"/>
    <path d="M 252.015 186.312 L 255.771 187.103 L 256.056 220.737 L 251.598 214.438 C 251.587 214.449 251.539 186.779 252.015 186.312 Z" style="fill: rgb(255, 6, 26);" transform="matrix(-0.71922, -0.694783, 0.706504, -0.707896, 417.791339, 970.950207)"/>
    <path d="M 251.748 169.724 L 257.435 166.201 L 257.138 210.428 L 252.372 210.63 L 251.748 169.724 Z" style="fill: rgb(255, 6, 26);" transform="matrix(0.709331, -0.704875, 0.704875, 0.709331, 39.098584, 472.4173)"/>
    <path d="M 251.424 163.157 L 255.896 158.83 L 256.441 213.562 L 250.869 214.777 L 251.424 163.157 Z" style="fill: rgb(255, 6, 26);" transform="matrix(0.709331, -0.704875, 0.704875, 0.709331, 38.132927, 543.393111)"/>
    <path d="M 251.936 165.479 L 256.608 160.344 L 257.539 209.416 L 252.977 210.021 L 251.936 165.479 Z" style="fill: rgb(255, 6, 26);" transform="matrix(0.709331, -0.704875, 0.704875, 0.709331, 39.098584, 621.28949)"/>
    <path d="M 251.883 174.471 L 255.461 168.907 L 255.818 208.31 L 251.358 209.42 L 251.883 174.471 Z" style="fill: rgb(255, 6, 26);" transform="matrix(0.709331, -0.704875, 0.704875, 0.709331, 41.995556, 692.587197)"/>
  </g>
  <path style="fill: rgb(216, 216, 216); stroke: rgb(0, 0, 0);" d="M 132.207 10.463"/>
  <path style="fill: rgb(216, 216, 216); stroke: rgb(0, 0, 0);" d="M 133.331 9.589"/>
</svg>